<svg xmlns="http://www.w3.org/2000/svg" width="44.03" height="34" viewBox="0 0 44.03 34">
  <metadata><?xpacket begin="﻿" id="W5M0MpCehiHzreSzNTczkc9d"?>
<x:xmpmeta xmlns:x="adobe:ns:meta/" x:xmptk="Adobe XMP Core 5.6-c140 79.160451, 2017/05/06-01:08:21        ">
   <rdf:RDF xmlns:rdf="http://www.w3.org/1999/02/22-rdf-syntax-ns#">
      <rdf:Description rdf:about=""/>
   </rdf:RDF>
</x:xmpmeta>
                                                                                                    
                                                                                                    
                                                                                                    
                                                                                                    
                                                                                                    
                                                                                                    
                                                                                                    
                                                                                                    
                                                                                                    
                                                                                                    
                                                                                                    
                                                                                                    
                                                                                                    
                                                                                                    
                                                                                                    
                                                                                                    
                                                                                                    
                                                                                                    
                                                                                                    
                                                                                                    
                           
<?xpacket end="w"?></metadata>
<defs>
    <style>
      .cls-1 {
        fill-rule: evenodd;
      }
    </style>
  </defs>
  <path id="_" data-name="“" class="cls-1" d="M4871.97,3793.27h-7.75a12.823,12.823,0,0,1,2.19-7.44q2.085-2.79,6.87-4.36l-3.13-6.49a23.308,23.308,0,0,0-8.44,4.93,16.376,16.376,0,0,0-4.53,7.07,37.919,37.919,0,0,0-1.22,10.76v11.24h16.01v-15.71Zm26.72,0h-7.75a12.753,12.753,0,0,1,2.2-7.44q2.07-2.79,6.86-4.36l-3.13-6.49a23.689,23.689,0,0,0-8.41,4.93,16.176,16.176,0,0,0-4.55,7.04,37.452,37.452,0,0,0-1.23,10.79v11.24h16.01v-15.71Z" transform="translate(-4855.97 -3774.97)"/>
</svg>
