<svg xmlns="http://www.w3.org/2000/svg" width="44" height="34" viewBox="0 0 44 34">
  <metadata><?xpacket begin="﻿" id="W5M0MpCehiHzreSzNTczkc9d"?>
<x:xmpmeta xmlns:x="adobe:ns:meta/" x:xmptk="Adobe XMP Core 5.6-c140 79.160451, 2017/05/06-01:08:21        ">
   <rdf:RDF xmlns:rdf="http://www.w3.org/1999/02/22-rdf-syntax-ns#">
      <rdf:Description rdf:about=""/>
   </rdf:RDF>
</x:xmpmeta>
                                                                                                    
                                                                                                    
                                                                                                    
                                                                                                    
                                                                                                    
                                                                                                    
                                                                                                    
                                                                                                    
                                                                                                    
                                                                                                    
                                                                                                    
                                                                                                    
                                                                                                    
                                                                                                    
                                                                                                    
                                                                                                    
                                                                                                    
                                                                                                    
                                                                                                    
                                                                                                    
                           
<?xpacket end="w"?></metadata>
<defs>
    <style>
      .cls-1 {
        fill-rule: evenodd;
      }
    </style>
  </defs>
  <path id="_copy_3" data-name="“ copy 3" class="cls-1" d="M5416.01,3884.7h7.74a12.679,12.679,0,0,1-2.19,7.44q-2.07,2.79-6.86,4.36l3.13,6.49a23.178,23.178,0,0,0,8.43-4.93,16.261,16.261,0,0,0,4.52-7.07,37.535,37.535,0,0,0,1.23-10.77v-11.23h-16v15.71Zm-26.7,0h7.74a12.823,12.823,0,0,1-2.19,7.44c-1.39,1.86-3.67,3.31-6.86,4.36l3.13,6.49a23.555,23.555,0,0,0,8.4-4.93,16.176,16.176,0,0,0,4.55-7.04,37.481,37.481,0,0,0,1.23-10.8v-11.23h-16v15.71Z" transform="translate(-5388 -3869)"/>
</svg>
